<?xml version="1.0" standalone="no"?>
<!DOCTYPE svg PUBLIC "-//W3C//DTD SVG 20010904//EN"
 "http://www.w3.org/TR/2001/REC-SVG-20010904/DTD/svg10.dtd">
<svg version="1.0" xmlns="http://www.w3.org/2000/svg"
 width="500.000000pt" height="500.000000pt" viewBox="0 0 500.000000 500.000000"
 preserveAspectRatio="xMidYMid meet">
<metadata>
Created by potrace 1.14, written by Peter Selinger 2001-2017
</metadata>
<g transform="translate(0.000000,500.000000) scale(0.100000,-0.100000)"
fill="#000000" stroke="none">
<path d="M1739 4667 c-1 -1 -3 -12 -4 -24 -2 -17 3 -23 16 -23 23 0 26 35 4
44 -8 3 -16 4 -16 3z"/>
<path d="M1863 4663 c-15 -5 -17 -39 -4 -47 16 -10 41 5 41 24 0 19 -17 30
-37 23z"/>
<path d="M2930 4651 c-13 -25 -13 -27 6 -45 20 -21 30 -20 54 4 16 16 18 25
10 40 -14 26 -56 26 -70 1z"/>
<path d="M2418 4645 c-2 -2 -30 -5 -63 -8 -117 -12 -214 -53 -313 -133 -113
-91 -182 -235 -187 -388 -4 -115 20 -205 83 -310 59 -98 117 -151 228 -207 49
-24 104 -60 124 -79 76 -76 194 -72 266 9 13 15 63 47 110 70 233 116 362 385
299 625 -48 182 -192 334 -370 390 -44 14 -171 36 -177 31z m110 -129 c69 -16
166 -68 212 -115 170 -172 169 -444 -3 -616 -186 -185 -458 -185 -645 1 -82
82 -114 151 -122 262 l-5 82 51 0 c51 0 51 0 57 34 20 127 159 253 298 273 30
4 57 6 62 5 4 -1 7 14 7 33 0 24 -5 35 -14 35 -8 0 -17 4 -20 9 -7 10 72 8
122 -3z"/>
<path d="M2400 4249 c0 -133 -3 -179 -12 -179 -14 0 -256 -108 -275 -123 -19
-14 5 -53 66 -111 75 -69 127 -90 231 -90 102 0 167 25 242 95 72 67 124 192
112 268 -12 79 -17 98 -35 131 -54 102 -166 174 -286 185 l-43 3 0 -179z"/>
<path d="M2615 4403 c-7 -20 12 -43 31 -36 8 3 14 13 14 23 0 23 -37 33 -45
13z"/>
<path d="M2748 4306 c-36 -27 -12 -57 28 -35 28 14 31 34 8 43 -19 7 -15 8
-36 -8z"/>
<path d="M2797 4133 c-4 -3 -7 -19 -7 -35 0 -21 5 -28 20 -28 16 0 20 7 20 35
0 33 -16 46 -33 28z"/>
<path d="M1983 4093 c-8 -20 1 -25 42 -25 42 0 54 7 36 25 -17 17 -72 17 -78
0z"/>
<path d="M2045 3926 c-11 -8 -14 -15 -7 -20 12 -7 42 3 42 14 0 16 -17 19 -35
6z"/>
<path d="M2763 3933 c-7 -2 -13 -9 -13 -14 0 -5 6 -8 13 -6 6 1 11 -4 9 -12
-3 -12 0 -12 13 -1 12 10 13 16 4 26 -6 8 -12 14 -13 13 0 0 -7 -3 -13 -6z"/>
<path d="M2167 3803 c4 -10 2 -14 -4 -10 -6 4 -14 0 -17 -9 -5 -12 -2 -15 10
-10 8 3 18 6 20 6 2 0 4 9 4 20 0 11 -4 20 -10 20 -5 0 -6 -7 -3 -17z"/>
<path d="M2655 3800 c3 -5 8 -10 11 -10 2 0 4 5 4 10 0 6 -5 10 -11 10 -5 0
-7 -4 -4 -10z"/>
<path d="M2402 3698 c2 -13 10 -23 18 -23 8 0 16 10 18 23 3 17 -2 22 -18 22
-16 0 -21 -5 -18 -22z"/>
<path d="M1550 4594 c0 -9 7 -14 17 -12 25 5 28 28 4 28 -12 0 -21 -6 -21 -16z"/>
<path d="M3277 4549 c-93 -22 -210 -107 -247 -180 -18 -35 -18 -37 2 -100 25
-80 30 -185 14 -267 l-14 -62 38 -43 c173 -195 501 -176 650 38 100 144 80
350 -48 495 -90 102 -255 152 -395 119z m306 -180 l37 -60 0 -163 c0 -159 0
-163 -22 -172 -13 -6 -106 -10 -207 -9 -220 1 -211 -4 -211 127 0 85 1 88 23
88 23 0 24 -3 22 -72 -1 -92 1 -98 36 -98 l29 0 0 203 c0 112 3 207 7 210 3 4
61 7 127 7 l121 0 38 -61z"/>
<path d="M3360 4346 c0 -28 10 -33 68 -30 61 2 60 2 60 29 0 24 -3 25 -64 25
-61 0 -64 -1 -64 -24z"/>
<path d="M3340 4235 c0 -14 6 -25 13 -26 61 -5 214 -3 223 4 7 4 10 17 7 27
-5 18 -14 20 -124 20 l-119 0 0 -25z"/>
<path d="M3342 4129 l-1 -30 122 3 121 3 0 25 0 25 -120 2 -121 1 -1 -29z"/>
<path d="M3363 4062 c-17 -3 -23 -10 -23 -28 l0 -25 123 3 c116 3 122 4 119
23 -2 11 -5 22 -7 23 -5 5 -184 8 -212 4z"/>
<path d="M2953 4533 c-18 -6 -16 -42 2 -49 8 -4 22 -1 30 6 24 20 -1 54 -32
43z"/>
<path d="M1550 4508 c0 -11 7 -18 20 -18 13 0 20 7 20 19 0 14 -6 19 -20 18
-12 -1 -20 -8 -20 -19z"/>
<path d="M1643 4523 c-7 -3 -13 -11 -13 -18 0 -15 19 -24 38 -18 6 3 12 11 12
18 0 15 -19 24 -37 18z"/>
<path d="M1736 4523 c-14 -15 -5 -43 14 -43 13 0 20 7 20 19 0 19 -23 35 -34
24z"/>
<path d="M1097 4464 c-4 -4 -7 -17 -7 -28 0 -16 6 -21 25 -21 22 0 25 4 23 25
-3 24 -27 38 -41 24z"/>
<path d="M1280 4459 c-13 -8 -13 -10 -1 -18 11 -7 10 -10 -5 -14 -12 -3 -9 -4
8 -4 31 1 43 20 25 36 -8 6 -18 6 -27 0z"/>
<path d="M1360 4446 c0 -21 5 -26 24 -26 32 0 31 44 -1 48 -19 3 -23 -1 -23
-22z"/>
<path d="M1557 4444 c-15 -15 -7 -45 11 -42 9 2 17 12 17 22 0 20 -16 31 -28
20z"/>
<path d="M1736 4443 c-14 -15 -5 -43 14 -43 13 0 20 7 20 19 0 19 -23 35 -34
24z"/>
<path d="M1014 4342 c-5 -4 -10 -15 -10 -24 -1 -13 5 -18 22 -18 17 0 24 6 24
19 0 20 -21 33 -36 23z"/>
<path d="M1103 4343 c-7 -2 -13 -13 -13 -24 0 -14 7 -19 26 -19 20 0 25 4 22
22 -3 23 -15 30 -35 21z"/>
<path d="M1190 4340 c-18 -11 -4 -40 20 -40 13 0 20 7 20 19 0 22 -21 33 -40
21z"/>
<path d="M1285 4336 c-21 -15 -12 -36 16 -36 12 0 19 7 19 19 0 27 -13 33 -35
17z"/>
<path d="M1373 4343 c-7 -3 -13 -13 -13 -24 0 -14 7 -19 25 -19 18 0 25 5 25
19 0 20 -17 31 -37 24z"/>
<path d="M1468 4343 c-28 -7 -22 -40 7 -45 21 -4 25 -1 25 18 0 26 -8 32 -32
27z"/>
<path d="M1560 4341 c-23 -9 -18 -36 8 -39 16 -3 22 2 22 17 0 24 -10 31 -30
22z"/>
<path d="M1630 4320 c0 -15 7 -20 24 -20 19 0 24 5 23 20 -1 14 -8 20 -24 20
-16 0 -23 -6 -23 -20z"/>
<path d="M1724 4323 c2 -10 13 -19 24 -21 17 -3 22 2 22 17 0 16 -6 21 -24 21
-17 0 -24 -5 -22 -17z"/>
<path d="M1732 4225 c-1 -19 3 -25 18 -25 15 0 20 7 20 25 0 17 -5 25 -18 25
-12 0 -18 -8 -20 -25z"/>
<path d="M1517 4220 c-51 -40 -45 -146 11 -220 15 -19 27 -37 27 -40 3 -34 29
-68 104 -137 49 -46 93 -83 98 -83 14 0 63 57 63 74 0 20 -29 21 -36 1 -9 -23
-27 -18 -70 21 -21 19 -58 51 -81 71 -24 19 -43 42 -43 49 0 8 14 38 30 68 45
80 41 164 -9 203 -24 19 -65 15 -94 -7z m71 -39 c23 -14 10 -46 -21 -49 -31
-4 -46 20 -27 43 14 17 29 19 48 6z"/>
<path d="M3888 4188 c-8 -21 2 -38 23 -38 14 0 19 7 19 25 0 18 -5 25 -19 25
-10 0 -21 -6 -23 -12z"/>
<path d="M905 4122 c-142 -50 -231 -125 -293 -247 -65 -130 -58 -312 17 -436
98 -159 226 -234 403 -238 146 -3 254 41 354 145 96 101 140 220 131 359 -13
203 -137 360 -332 418 -72 21 -218 20 -280 -1z m278 -131 c58 -25 139 -99 163
-149 22 -47 44 -137 35 -148 -3 -5 -53 -9 -110 -9 l-104 0 -15 -43 c-23 -69
-109 -96 -165 -52 -14 11 -29 20 -33 20 -4 0 -28 -17 -53 -38 -70 -59 -69 -58
-90 -10 -10 24 -22 60 -25 81 l-7 37 81 0 c77 0 81 1 90 25 8 21 53 57 83 68
5 1 9 47 10 102 l2 100 -40 -1 c-22 0 -60 -11 -85 -22 -186 -90 -240 -306
-117 -468 35 -47 150 -114 196 -114 43 0 67 -24 41 -40 -40 -24 -199 48 -261
118 -102 116 -104 321 -4 442 40 49 129 105 190 121 49 13 166 3 218 -20z"/>
<path d="M1176 3913 c-15 -21 -58 -82 -96 -136 -39 -54 -70 -105 -70 -112 0
-14 46 -33 55 -23 3 2 6 14 8 25 1 11 16 40 32 64 17 24 35 55 42 69 7 14 29
47 48 74 20 27 34 54 32 59 -7 23 -26 16 -51 -20z"/>
<path d="M4402 4098 c-7 -7 -12 -18 -12 -25 0 -7 -25 -39 -56 -73 -45 -47 -60
-58 -70 -49 -8 7 -28 9 -49 5 -48 -9 -70 -44 -61 -96 6 -37 3 -43 -30 -75
l-36 -35 -144 0 c-133 0 -144 1 -154 20 -15 29 -47 42 -81 35 -35 -8 -53 -37
-51 -83 1 -28 -9 -44 -71 -108 -45 -47 -86 -80 -108 -87 -24 -8 -97 -12 -210
-12 l-174 1 -3 44 c-2 31 1 48 12 56 44 32 20 113 -34 116 -43 2 -49 -1 -63
-29 -19 -37 -14 -63 17 -90 19 -16 26 -32 26 -58 0 -19 -3 -36 -7 -36 -37 -7
-73 -3 -100 9 -27 13 -35 13 -48 2 -33 -27 2 -82 41 -65 11 4 40 9 67 11 l47
3 0 -55 c0 -54 0 -54 -30 -54 -17 0 -41 7 -55 16 -31 20 -65 4 -65 -31 0 -30
12 -34 86 -28 l62 6 4 -71 c2 -51 9 -79 24 -98 31 -42 90 -68 159 -70 33 -1
63 -2 66 -3 4 -1 6 -29 5 -64 -1 -48 -6 -69 -23 -91 -25 -32 -27 -43 -14 -79
17 -44 82 -52 114 -15 24 29 21 65 -8 94 -24 24 -25 29 -25 171 0 143 1 146
25 169 66 61 -6 170 -85 129 -16 -8 -32 -19 -35 -25 -3 -5 -42 -10 -86 -10
l-79 0 0 53 0 52 188 1 c122 0 200 5 224 13 26 8 62 39 113 94 65 71 79 81
105 79 21 -2 38 5 56 23 24 24 28 25 170 25 84 0 154 5 167 11 12 6 36 27 53
46 l31 35 -2 -98 c-1 -77 -6 -106 -20 -127 -35 -54 -63 -60 -258 -60 -123 -1
-181 3 -189 11 -17 17 -44 15 -62 -4 -21 -20 -20 -30 4 -54 18 -18 24 -19 43
-8 15 9 80 13 208 14 154 1 192 4 222 19 73 34 96 88 95 219 0 75 1 79 31 107
17 15 31 38 31 51 0 23 99 149 123 157 16 5 47 32 47 42 0 12 -30 39 -44 39
-6 0 -17 -5 -24 -12z m-172 -228 c-6 -11 -12 -20 -14 -20 -2 0 -2 9 1 20 3 11
9 20 15 20 5 0 4 -9 -2 -20z m-476 -125 c3 -8 -2 -21 -10 -29 -20 -20 -44 -9
-44 20 0 19 5 24 24 24 13 0 26 -7 30 -15z m-671 -64 c4 -1 6 -7 5 -13 -4 -18
-39 -31 -51 -19 -15 15 -1 40 20 36 10 -2 21 -4 26 -4z m171 -374 c3 -13 16
-29 29 -36 21 -11 24 -20 25 -72 l1 -59 -32 -1 c-73 -3 -96 0 -126 15 -40 21
-61 63 -61 126 l0 50 79 0 c74 0 79 -1 85 -23z m103 -413 c9 -24 -11 -38 -37
-24 -17 9 -19 14 -9 26 15 19 38 18 46 -2z"/>
<path d="M1730 4080 c0 -13 7 -20 20 -20 13 0 20 7 20 20 0 13 -7 20 -20 20
-13 0 -20 -7 -20 -20z"/>
<path d="M3882 4053 c-12 -22 2 -61 23 -70 9 -3 27 -1 41 5 26 13 33 49 12 70
-18 18 -66 15 -76 -5z"/>
<path d="M3913 3923 c-16 -6 -17 -35 -2 -50 26 -26 71 15 48 43 -12 14 -24 16
-46 7z"/>
<path d="M3334 3665 c-10 -8 -38 -15 -61 -15 -23 0 -45 -4 -48 -10 -3 -5 -5
-10 -3 -11 2 0 23 -3 48 -5 25 -3 52 -12 61 -20 19 -17 51 -18 67 -2 18 18 14
56 -7 68 -26 13 -34 13 -57 -5z"/>
<path d="M1600 3522 c0 -96 2 -111 20 -127 19 -17 20 -17 39 6 l19 24 24 -22
c22 -21 26 -22 46 -7 20 14 22 23 22 125 l0 109 -85 0 -85 0 0 -108z m108 36
c29 -29 2 -66 -39 -53 -24 8 -25 41 -1 54 22 13 26 13 40 -1z"/>
<path d="M1830 3521 c0 -101 2 -111 21 -125 20 -14 23 -13 43 9 l21 24 22 -27
c21 -26 22 -26 40 -9 15 15 18 35 18 127 l1 110 -83 0 -83 0 0 -109z m108 37
c29 -29 2 -66 -39 -53 -31 10 -17 65 16 65 6 0 16 -5 23 -12z"/>
<path d="M4391 3548 c-24 -22 -23 11 -23 -434 -1 -182 2 -335 5 -341 5 -7 52
-9 112 -4 8 1 11 124 10 380 0 348 -2 381 -18 399 -23 25 -60 25 -86 0z"/>
<path d="M2117 3468 c-21 -11 -22 -41 -2 -58 18 -15 65 1 65 22 -1 32 -36 52
-63 36z"/>
<path d="M2638 3459 c-24 -14 -22 -45 4 -63 37 -26 79 14 58 55 -12 21 -35 24
-62 8z"/>
<path d="M2780 3455 c-17 -20 -5 -45 20 -45 11 0 23 7 26 15 6 15 -11 45 -26
45 -4 0 -13 -7 -20 -15z"/>
<path d="M2368 3395 c-53 -13 -97 -46 -128 -95 -19 -30 -33 -39 -110 -63 -246
-76 -501 -357 -555 -609 -3 -16 -11 -28 -18 -28 -28 0 -104 -61 -126 -100 -58
-103 -7 -242 107 -289 25 -11 34 -25 57 -89 29 -84 75 -166 142 -253 113 -150
309 -278 473 -310 35 -7 74 -21 85 -32 34 -32 77 -49 122 -49 47 1 75 13 113
46 14 13 52 28 89 35 98 19 160 46 257 111 101 67 128 91 200 175 79 91 131
179 160 270 25 77 30 84 65 99 156 69 161 296 8 368 -37 18 -49 30 -55 53 -32
142 -116 286 -234 403 -40 39 -75 72 -79 72 -7 0 -106 -156 -106 -168 0 -4 26
-38 59 -74 86 -97 113 -142 148 -248 27 -82 31 -110 32 -200 0 -125 -17 -200
-74 -315 -54 -109 -181 -235 -290 -288 -219 -106 -489 -83 -675 58 -61 47
-169 166 -196 218 -26 50 -57 129 -64 164 -14 64 -17 203 -6 273 13 81 79 231
126 285 109 125 168 171 275 215 115 47 238 63 353 45 52 -9 175 -53 215 -77
19 -11 37 -17 41 -12 54 64 111 148 108 159 -9 22 -108 72 -199 100 -49 15
-88 32 -88 38 0 18 -50 77 -79 92 -51 26 -104 33 -153 20z m99 -106 c18 -10
43 -55 43 -77 0 -3 -14 9 -31 26 -46 47 -107 40 -142 -16 -18 -30 -22 -17 -7
22 5 14 24 35 41 45 33 20 58 20 96 0z m-807 -814 c0 -11 -12 -14 -50 -12 -42
1 -53 -2 -66 -21 -18 -26 -36 -29 -27 -4 14 40 35 52 90 52 40 0 53 -4 53 -15z
m1632 -2 c10 -9 18 -22 18 -30 0 -11 -5 -10 -24 2 -13 9 -45 17 -71 18 -28 1
-50 7 -53 15 -6 20 107 16 130 -5z"/>
<path d="M3466 3384 c-12 -31 -6 -54 13 -54 17 0 21 22 13 63 -3 13 -20 7 -26
-9z"/>
<path d="M3636 3379 c-29 -42 12 -92 58 -71 28 13 36 58 14 80 -19 19 -55 14
-72 -9z"/>
<path d="M1974 3359 c-20 -26 -23 -47 -9 -66 19 -25 27 -12 23 38 -2 33 -5 39
-14 28z"/>
<path d="M1600 3326 c0 -53 41 -56 45 -3 2 15 -21 37 -39 37 -3 0 -6 -15 -6
-34z"/>
<path d="M1727 3353 c-3 -5 -4 -21 -3 -38 1 -28 2 -29 59 -31 85 -3 96 2 93
39 -2 24 -8 33 -24 35 -14 2 -22 -2 -22 -12 0 -16 -34 -31 -50 -21 -5 3 -10
13 -10 21 0 14 -35 20 -43 7z"/>
<path d="M4234 3300 c-12 -5 -26 -15 -30 -22 -13 -19 -12 -508 1 -509 5 0 34
-2 63 -3 l52 -1 0 240 c0 132 -3 250 -6 261 -4 17 -45 47 -57 43 -1 0 -12 -4
-23 -9z"/>
<path d="M4046 3208 c-13 -19 -16 -58 -16 -230 0 -115 3 -208 8 -209 4 0 30
-2 57 -2 l50 -2 3 214 c2 189 0 216 -14 232 -24 26 -69 24 -88 -3z"/>
<path d="M1383 3170 c-101 -45 -126 -176 -48 -254 19 -19 47 -37 63 -40 l28
-7 0 -92 c-1 -77 -5 -98 -24 -128 -12 -20 -36 -42 -52 -49 -18 -8 -30 -20 -30
-31 0 -23 2 -23 43 -5 45 20 85 60 95 98 5 18 8 72 7 120 -1 81 0 87 20 92 54
14 103 77 110 142 5 53 -37 127 -83 147 -57 25 -85 27 -129 7z m122 -85 c54
-53 15 -145 -60 -145 -46 0 -94 43 -90 80 1 14 3 30 4 37 0 7 11 21 23 33 32
29 92 27 123 -5z"/>
<path d="M1419 3073 c-27 -7 -40 -47 -23 -72 17 -23 63 -28 82 -9 18 18 15 59
-5 74 -18 14 -26 15 -54 7z"/>
<path d="M3467 3163 c-4 -3 -7 -93 -7 -199 0 -183 1 -192 20 -197 11 -3 21 0
21 6 5 38 7 356 3 375 -4 21 -23 29 -37 15z"/>
<path d="M3600 3162 c-43 -15 -48 -35 -48 -217 -1 -102 3 -175 9 -176 5 -1 33
-2 62 -2 l52 -1 3 164 c1 91 0 175 -3 187 -6 25 -52 53 -75 45z"/>
<path d="M1147 3117 c-6 -15 6 -39 18 -39 9 0 25 23 25 35 0 5 -4 5 -10 2 -5
-3 -10 -1 -10 4 0 16 -17 14 -23 -2z"/>
<path d="M1710 3109 c0 -26 33 -22 38 5 3 11 0 16 -7 11 -6 -3 -8 -11 -5 -17
4 -7 2 -8 -5 -4 -6 4 -9 12 -6 17 4 5 1 9 -4 9 -6 0 -11 -9 -11 -21z"/>
<path d="M980 3079 c0 -21 -1 -42 -1 -46 -3 -13 -33 -31 -70 -40 l-34 -9 -1
-140 c0 -76 3 -144 7 -149 4 -6 36 -10 71 -10 l63 1 2 215 c2 207 2 215 -17
216 -17 2 -20 -5 -20 -38z"/>
<path d="M3875 3060 c-16 -18 -19 -39 -20 -148 -1 -70 0 -132 2 -137 2 -6 31
-10 66 -10 l62 1 0 142 c0 129 -2 142 -20 156 -28 22 -69 20 -90 -4z"/>
<path d="M500 3044 c0 -14 -9 -33 -20 -42 -12 -10 -22 -27 -23 -39 -1 -13 -4
-23 -8 -23 -5 0 -41 -136 -53 -206 -29 -154 -35 -247 -32 -444 3 -174 10 -238
40 -385 15 -76 64 -222 120 -364 30 -76 114 -234 160 -302 l33 -50 5 68 c3 37
14 85 23 105 l19 38 -66 137 c-75 157 -107 239 -141 368 -66 242 -66 596 -1
845 16 61 37 114 59 147 19 29 35 59 35 67 0 24 -11 46 -21 41 -4 -3 -11 10
-15 30 -6 35 -6 35 -60 35 -51 0 -54 -1 -54 -26z"/>
<path d="M2290 3019 c-205 -41 -412 -248 -470 -468 -13 -50 -17 -189 -6 -241
48 -238 221 -426 457 -494 190 -55 435 15 581 168 123 128 180 278 174 456 -6
160 -72 303 -190 412 l-30 28 -14 -33 c-7 -17 -28 -84 -47 -147 -18 -63 -36
-122 -40 -132 -6 -15 -94 -86 -133 -107 -13 -7 -21 -25 -24 -55 -3 -25 -13
-57 -23 -72 -21 -32 -89 -64 -124 -57 -66 12 -121 75 -121 140 0 64 73 133
140 133 35 0 37 2 68 73 24 52 50 89 97 136 35 35 61 69 58 77 -2 7 8 19 25
28 17 9 40 29 52 46 l22 31 -75 34 c-41 19 -92 38 -114 43 -53 12 -206 13
-263 1z m150 -110 c0 -12 -7 -19 -18 -19 -26 0 -33 10 -21 31 12 22 39 14 39
-12z m-253 -65 c7 -20 -17 -37 -34 -23 -15 13 -6 39 13 39 8 0 17 -7 21 -16z
m-184 -188 c9 -22 -18 -40 -33 -22 -6 9 -9 20 -5 26 9 15 32 12 38 -4z m870 0
c7 -17 -18 -40 -33 -31 -5 3 -10 15 -10 26 0 23 35 27 43 5z m-916 -242 c9
-23 -13 -40 -32 -24 -12 10 -13 16 -4 26 15 18 28 18 36 -2z m962 2 c9 -10 8
-16 -4 -26 -21 -17 -51 6 -34 26 6 8 15 14 19 14 4 0 13 -6 19 -14z m-915
-251 c3 -9 -1 -18 -10 -22 -19 -7 -39 11 -30 26 10 16 33 13 40 -4z m866 -5
c0 -13 -7 -20 -20 -20 -13 0 -20 7 -20 20 0 13 7 20 20 20 13 0 20 -7 20 -20z
m-684 -179 c-9 -14 -33 -14 -41 -1 -4 6 -1 18 6 26 11 13 14 13 27 0 8 -8 11
-19 8 -25z m504 9 c0 -13 -7 -20 -18 -20 -24 0 -32 8 -25 26 8 22 43 17 43 -6z
m-253 -66 c3 -8 1 -20 -5 -26 -15 -15 -43 8 -35 28 7 19 32 18 40 -2z"/>
<path d="M1140 2990 c0 -11 7 -23 16 -27 20 -8 36 17 22 34 -16 20 -38 15 -38
-7z"/>
<path d="M722 2988 c-19 -19 -15 -48 8 -48 16 0 20 7 20 30 0 32 -9 37 -28 18z"/>
<path d="M787 2993 c-4 -3 -7 -17 -7 -30 0 -20 5 -24 23 -21 23 3 30 24 14 46
-11 13 -20 15 -30 5z"/>
<path d="M760 2883 c-36 -14 -66 -27 -68 -29 -9 -7 -7 -156 2 -162 6 -3 39 -6
73 -6 l63 -1 0 113 c0 61 -1 112 -2 112 -2 0 -32 -12 -68 -27z"/>
<path d="M1136 2853 c-4 -9 0 -23 8 -31 12 -13 18 -13 30 -2 20 16 20 36 0 44
-24 9 -31 7 -38 -11z"/>
<path d="M3744 2822 c-6 -4 -13 -15 -17 -24 -7 -19 15 -35 43 -32 8 1 21 2 28
3 18 2 15 48 -4 55 -21 8 -37 7 -50 -2z"/>
<path d="M2687 2788 c-14 -18 -48 -57 -75 -86 -45 -49 -143 -232 -124 -232 8
0 52 29 62 39 3 4 24 19 48 35 24 16 47 37 52 45 11 21 70 224 66 228 -2 2
-15 -11 -29 -29z"/>
<path d="M1145 2730 c-4 -12 -2 -27 5 -34 14 -18 47 -9 53 14 10 38 -46 57
-58 20z"/>
<path d="M1300 2735 c-18 -21 -5 -47 22 -43 26 3 37 36 16 49 -18 12 -24 11
-38 -6z"/>
<path d="M3336 2713 c-3 -4 -6 -14 -6 -24 0 -21 34 -19 38 3 3 16 -21 31 -32
21z"/>
<path d="M4354 2671 c11 -17 21 -175 20 -311 -1 -280 -6 -374 -24 -425 -86
-247 -175 -435 -291 -619 l-71 -110 22 -47 c12 -25 23 -63 25 -83 1 -20 4 -38
7 -41 4 -4 37 39 118 154 126 178 292 551 314 706 4 22 13 76 21 120 27 152
35 365 21 545 -5 52 -8 101 -9 108 0 8 -23 12 -79 12 -45 0 -77 -4 -74 -9z"/>
<path d="M3601 2636 c-82 -29 -110 -121 -57 -190 54 -72 164 -66 213 12 28 43
37 49 58 42 11 -4 27 -4 36 1 17 9 28 1 75 -58 49 -62 138 -66 194 -8 61 63
46 160 -31 199 -68 34 -137 10 -183 -63 -24 -38 -27 -39 -73 -36 -26 2 -51 3
-54 4 -4 1 -10 12 -13 26 -8 30 -65 75 -102 79 -16 2 -44 -2 -63 -8z m473 -84
c16 -32 6 -66 -27 -86 -26 -17 -71 12 -75 48 -7 62 74 93 102 38z"/>
<path d="M4013 2535 c-3 -9 -3 -19 1 -22 3 -4 6 1 6 11 0 10 5 14 12 10 7 -4
8 -3 4 4 -10 16 -15 15 -23 -3z"/>
<path d="M3821 2643 c-1 -17 16 -25 25 -12 4 7 3 9 -4 5 -5 -3 -13 0 -15 6 -4
9 -6 10 -6 1z"/>
<path d="M663 2572 c-56 -2 -73 -6 -73 -17 0 -10 11 -15 33 -15 66 -2 503 -2
535 -1 21 1 32 6 32 16 0 12 -20 15 -117 15 -65 1 -167 2 -228 3 -60 1 -143 1
-182 -1z"/>
<path d="M2368 2493 c-35 -22 -50 -57 -42 -98 8 -43 33 -65 81 -72 45 -6 87
21 97 63 10 39 -1 42 -32 6 -38 -44 -82 -47 -107 -8 -14 21 -15 28 -3 51 8 14
25 32 38 38 13 7 25 18 28 25 5 17 -28 15 -60 -5z"/>
<path d="M1180 2465 c7 -8 11 -16 9 -16 -4 -2 -75 -6 -126 -8 -16 -1 -31 -18
-58 -66 -38 -67 -42 -69 -81 -33 -21 19 -22 18 -70 -20 -27 -21 -54 -41 -60
-45 -6 -3 -30 7 -55 24 -24 16 -48 29 -54 29 -19 -1 -95 -76 -100 -98 -7 -36
9 -33 54 8 24 22 47 40 53 40 5 0 29 -13 52 -30 l43 -29 54 39 c29 22 58 40
65 40 19 0 44 -45 33 -61 -13 -20 -11 -29 5 -29 9 0 12 7 9 20 -5 21 11 28 22
10 4 -6 12 -7 18 -3 7 4 89 8 182 8 144 0 170 2 170 15 0 13 -23 15 -145 17
-79 1 -152 -3 -162 -8 -16 -9 -17 -7 -7 18 6 16 21 47 35 71 l25 42 64 0 c63
0 64 0 92 -40 15 -22 30 -40 33 -40 3 1 17 29 32 63 47 107 53 97 -52 97 -81
0 -91 -2 -80 -15z"/>
<path d="M930 2450 c0 -19 -7 -20 -169 -20 -141 0 -170 -2 -175 -15 -3 -8 -2
-15 2 -16 10 -1 312 -1 340 0 18 1 22 7 22 36 0 19 -4 35 -10 35 -5 0 -10 -9
-10 -20z"/>
<path d="M2400 2410 c0 -5 5 -10 11 -10 5 0 7 5 4 10 -3 6 -8 10 -11 10 -2 0
-4 -4 -4 -10z"/>
<path d="M3805 2367 c-19 -14 -13 -37 9 -37 18 0 35 21 29 36 -6 17 -14 18
-38 1z"/>
<path d="M3570 2296 c0 -24 23 -41 41 -30 5 3 9 16 9 30 0 19 -5 24 -25 24
-20 0 -25 -5 -25 -24z"/>
<path d="M3932 2254 c-128 -63 -173 -204 -109 -336 106 -217 426 -166 462 74
11 73 -10 153 -53 201 -79 86 -200 111 -300 61z m122 -20 c21 -8 21 -53 0 -61
-23 -8 -38 12 -30 41 7 28 7 29 30 20z m-94 -73 c15 -29 13 -38 -11 -44 -33
-9 -49 3 -49 34 0 24 4 29 25 29 14 0 29 -8 35 -19z m228 -5 c5 -23 -23 -47
-45 -39 -13 5 -13 2 1 -24 8 -17 12 -33 9 -37 -4 -3 15 -6 40 -6 40 0 47 -3
47 -19 0 -16 -8 -20 -40 -23 -34 -2 -45 -9 -63 -37 -19 -31 -19 -34 -3 -28 24
9 56 -9 56 -32 0 -17 -18 -31 -41 -31 -4 0 -15 13 -24 30 -14 26 -18 28 -39
18 -49 -22 -132 18 -148 72 -3 10 -16 14 -46 11 -37 -2 -42 0 -42 18 0 18 6
21 43 21 37 0 44 4 57 32 8 18 30 41 49 52 28 16 40 18 73 9 36 -10 40 -9 55
14 19 28 56 28 61 -1z m-223 -233 c-11 -44 -56 -58 -63 -20 -5 25 16 47 45 47
22 0 24 -3 18 -27z m103 -60 c-2 -20 -9 -29 -25 -31 -20 -3 -23 1 -23 27 0 27
4 31 26 31 22 0 25 -4 22 -27z"/>
<path d="M4007 2102 c-63 -39 -49 -131 23 -147 77 -17 129 70 78 130 -29 33
-65 39 -101 17z m83 -72 c0 -36 -46 -53 -70 -25 -16 19 -5 62 18 68 21 4 52
-20 52 -43z"/>
<path d="M782 2208 c-17 -17 -15 -35 8 -58 11 -11 17 -20 13 -20 -5 -1 -56 -1
-115 -1 -85 0 -108 -3 -108 -14 0 -28 -21 -27 468 -26 295 1 302 1 302 21 0
19 -7 20 -202 21 -112 1 -216 0 -232 -1 -20 -1 -27 2 -23 12 7 20 -11 48 -32
48 -10 0 -24 7 -31 15 -15 18 -32 19 -48 3z"/>
<path d="M3533 2202 l-33 -3 0 -463 0 -462 30 0 c25 0 30 4 30 23 0 17 4 22
13 17 10 -6 10 -4 0 7 -15 15 -18 175 -4 183 5 4 16 3 25 0 13 -5 16 -25 16
-119 l0 -112 32 1 33 1 3 462 4 461 -59 4 c-32 1 -73 2 -90 0z m103 -77 c1
-39 -10 -53 -41 -50 -33 4 -45 13 -45 35 0 37 10 47 48 46 34 -1 37 -3 38 -31z"/>
<path d="M1426 2133 c-13 -34 -6 -53 19 -53 21 0 25 5 25 29 0 32 -34 51 -44
24z"/>
<path d="M3333 2124 c-3 -9 -2 -24 4 -33 9 -14 18 -16 54 -12 6 0 9 13 7 29
-2 21 -9 28 -31 30 -18 2 -29 -2 -34 -14z"/>
<path d="M1434 2018 c-47 -22 -50 -87 -7 -119 13 -10 19 -30 21 -74 4 -103 35
-128 162 -130 89 -2 120 -13 139 -50 10 -19 16 -77 12 -120 -2 -17 -4 -17 -9
-4 -4 9 -21 33 -39 53 -31 35 -35 36 -98 36 -63 0 -66 -1 -63 -22 3 -20 8 -22
56 -21 47 2 54 -1 74 -27 11 -16 34 -34 50 -39 30 -11 30 -8 30 -127 0 -63 -3
-74 -26 -97 -14 -14 -26 -35 -26 -47 0 -26 43 -70 67 -70 25 0 59 25 65 48 6
23 -17 82 -32 82 -6 0 -10 30 -10 78 l0 78 55 -1 c46 0 59 -5 85 -30 26 -25
34 -27 57 -19 64 22 68 105 6 130 -29 12 -34 11 -65 -14 -28 -21 -44 -27 -84
-26 l-49 1 -6 79 c-10 139 -38 165 -181 169 -115 3 -133 17 -130 101 1 44 6
60 22 71 13 9 20 25 20 47 0 51 -52 86 -96 64z m56 -58 c0 -25 -25 -36 -45
-20 -20 16 -7 40 21 40 17 0 24 -6 24 -20z m516 -485 c8 -20 -13 -45 -32 -38
-14 5 -19 34 -7 46 11 12 33 7 39 -8z m-202 -240 c2 -7 -1 -19 -9 -25 -19 -16
-51 16 -35 35 13 16 36 10 44 -10z"/>
<path d="M724 1985 c-4 -9 -4 -19 0 -22 3 -4 6 0 6 8 0 11 2 11 10 -1 8 -13
10 -13 10 2 0 23 -19 33 -26 13z"/>
<path d="M1197 1986 c-7 -18 1 -26 25 -26 13 0 18 6 16 17 -4 22 -34 29 -41 9z"/>
<path d="M925 1973 c1 -10 -2 -24 -8 -31 -8 -10 -13 -9 -27 3 -15 14 -18 13
-35 -5 -14 -16 -15 -22 -5 -35 17 -20 -3 -45 -33 -42 -17 2 -23 -4 -25 -25 -2
-20 1 -28 12 -28 21 0 20 -30 0 -45 -24 -17 -9 -55 22 -55 25 0 32 -18 14 -36
-6 -6 -5 -17 6 -32 13 -18 19 -20 36 -11 22 12 34 4 40 -26 4 -25 48 -34 48
-11 0 10 9 16 25 16 18 0 25 -5 25 -19 0 -14 6 -17 25 -13 14 2 25 11 25 21 0
31 16 44 38 32 17 -9 23 -7 36 14 10 15 12 26 6 30 -19 12 -10 35 14 35 21 0
36 16 36 40 0 5 -9 11 -19 15 -23 7 -22 26 2 49 21 21 6 58 -21 54 -13 -2 -17
4 -17 27 0 17 -5 38 -11 48 -9 16 -12 16 -23 3 -17 -20 -41 -9 -41 20 0 19 -5
24 -25 24 -14 0 -25 -3 -25 -7 -1 -32 -50 -39 -50 -7 0 8 -10 14 -24 14 -17 0
-23 -5 -21 -17z m141 -117 c24 -24 34 -43 34 -66 0 -65 -58 -119 -120 -112
-33 4 -90 65 -90 96 0 66 44 116 103 116 31 0 46 -7 73 -34z"/>
<path d="M3265 1882 c-3 -3 -5 -141 -5 -307 l0 -302 30 -1 c17 0 30 3 30 8 0
4 7 11 16 14 14 5 15 4 4 -9 -11 -14 -10 -14 14 -5 18 6 25 6 21 0 -4 -6 8
-10 29 -10 l36 0 0 310 0 311 -85 -2 c-46 -1 -86 -4 -90 -7z m127 -54 c7 -21
-3 -56 -19 -62 -8 -3 -25 -3 -39 0 -18 5 -24 13 -24 33 0 15 3 31 7 34 11 12
71 8 75 -5z m-15 -382 c5 -5 2 -6 -6 -1 -21 12 -43 -22 -30 -46 5 -11 14 -19
20 -19 6 0 7 6 3 13 -4 6 -3 9 1 4 5 -4 10 -18 11 -30 2 -12 0 -16 -2 -9 -3 6
-12 12 -20 12 -8 0 -14 5 -14 11 0 5 -3 8 -7 6 -5 -3 -8 12 -8 32 0 31 3 37
22 36 12 0 25 -4 30 -9z m-3 -24 c3 -5 -1 -9 -9 -9 -8 0 -15 4 -15 9 0 4 4 8
9 8 6 0 12 -4 15 -8z m5 -110 c0 -12 -3 -11 -9 6 -8 19 -20 26 -41 24 -3 -1
-6 5 -6 13 0 11 7 9 29 -6 15 -11 28 -28 27 -37z m-29 14 c0 -2 -7 -9 -15 -16
-13 -11 -14 -10 -9 4 5 14 24 23 24 12z"/>
<path d="M689 1856 c-6 -7 -5 -36 2 -36 5 0 12 0 17 0 4 0 7 8 8 18 1 10 -5
19 -12 19 -8 0 -14 -1 -15 -1z"/>
<path d="M1284 1852 c-20 -13 -12 -42 12 -42 30 0 38 15 18 34 -18 18 -16 18
-30 8z"/>
<path d="M1281 1731 c-17 -11 -7 -45 12 -39 13 5 23 48 10 48 -4 0 -14 -4 -22
-9z"/>
<path d="M692 1721 c2 -7 7 -12 11 -12 12 1 9 15 -3 20 -7 2 -11 -2 -8 -8z"/>
<path d="M4016 1655 c-20 -20 -6 -59 22 -63 29 -4 47 30 30 58 -15 24 -31 25
-52 5z"/>
<path d="M3735 1642 c-3 -3 -5 -87 -5 -187 l0 -182 30 0 30 0 2 165 c3 148 5
165 20 168 20 3 40 -51 28 -76 -4 -8 -4 -26 -1 -39 4 -13 4 -49 1 -80 -3 -31
-4 -75 -2 -98 3 -39 5 -42 30 -40 l27 2 0 185 0 185 -78 1 c-42 0 -79 -2 -82
-4z"/>
<path d="M755 1606 c-16 -12 -16 -13 0 -30 21 -21 39 -16 43 11 4 25 -20 36
-43 19z"/>
<path d="M1183 1594 c-9 -23 11 -50 33 -46 28 5 37 18 29 41 -8 26 -53 29 -62
5z"/>
<path d="M1350 1595 c-11 -13 -11 -19 3 -32 21 -21 49 -9 45 19 -4 28 -30 35
-48 13z"/>
<path d="M3029 1553 c-2 -10 -4 -76 -4 -148 l1 -130 33 2 c18 0 38 6 45 13 8
8 7 10 -4 5 -13 -5 -16 6 -15 67 0 40 5 76 10 80 7 5 7 8 0 8 -11 0 -17 59 -6
61 3 0 15 2 26 4 15 3 21 -1 22 -16 1 -12 -2 -17 -10 -12 -9 5 -9 3 -1 -8 6
-8 10 -55 10 -112 l-1 -97 32 2 c18 1 34 5 34 8 1 3 2 69 3 148 l2 142 -87 0
c-74 0 -87 -2 -90 -17z"/>
<path d="M2870 1535 c-15 -18 -6 -45 13 -45 8 0 20 7 27 15 10 12 10 18 0 30
-16 19 -24 19 -40 0z"/>
<path d="M4013 1514 c-4 -11 1 -22 13 -31 16 -12 20 -11 32 4 16 23 11 37 -16
41 -14 2 -25 -3 -29 -14z"/>
<path d="M2713 1469 c-6 -6 -9 -19 -6 -29 10 -39 63 -34 63 5 0 31 -35 46 -57
24z"/>
<path d="M2153 1439 c-1 -12 3 -16 14 -12 12 5 14 3 8 -7 -5 -9 -4 -11 4 -6 8
6 9 12 2 20 -6 7 -9 15 -6 18 3 2 -1 5 -8 5 -7 0 -14 -8 -14 -18z"/>
<path d="M955 1439 c-61 -8 -103 -35 -136 -87 l-29 -46 0 -239 c0 -228 1 -242
22 -285 17 -32 36 -52 73 -73 l50 -29 248 0 c224 0 251 2 285 19 49 25 80 60
92 102 6 19 10 139 10 267 0 249 -4 276 -51 319 -53 48 -89 55 -314 57 -115 0
-228 -2 -250 -5z m470 -109 c28 -15 35 -36 8 -26 -9 4 -120 7 -246 7 -246 0
-267 -4 -287 -54 -7 -18 -9 -19 -9 -4 -1 30 28 76 52 82 43 9 73 10 264 9 141
0 200 -4 218 -14z"/>
<path d="M2408 1399 c-11 -7 -14 -811 -3 -828 5 -9 22 -8 68 2 26 5 46 28 29
34 -6 3 -10 9 -7 14 4 5 -1 6 -10 2 -11 -4 -13 -8 -5 -13 8 -5 7 -10 -2 -18
-11 -9 -14 6 -14 79 -1 49 2 86 7 83 5 -3 9 0 9 5 0 6 -5 11 -11 11 -12 0 -8
42 5 52 6 4 16 -1 23 -10 12 -15 13 -14 3 6 -7 15 -7 28 -1 41 12 21 5 31 -20
31 -14 0 -17 8 -16 42 2 34 6 42 25 44 26 5 24 15 27 -128 1 -80 -2 -118 -9
-118 -8 0 -8 -2 0 -8 12 -7 14 -129 2 -147 -4 -7 9 -10 35 -10 l41 0 2 418 1
417 -26 1 c-110 4 -144 3 -153 -2z m123 -60 c5 -8 7 -20 4 -27 -3 -8 -5 -17
-5 -22 0 -13 -42 -20 -62 -9 -17 9 -26 58 -13 71 11 10 67 0 76 -13z m-37
-474 c-4 -8 -10 -15 -16 -15 -5 0 -6 -4 -3 -10 3 -5 1 -10 -4 -10 -6 0 -10 11
-9 25 2 16 8 25 20 25 11 0 15 -5 12 -15z"/>
<path d="M2852 1371 c-4 -9 -8 -34 -7 -56 l0 -40 60 0 60 0 0 54 0 55 -53 2
c-40 1 -54 -2 -60 -15z"/>
<path d="M3983 1376 c6 -16 5 -17 -7 -7 -12 10 -15 9 -13 -8 2 -24 7 -26 29
-8 16 11 16 13 0 27 -14 13 -15 12 -9 -4z"/>
<path d="M2700 1345 c-17 -20 -3 -54 26 -61 42 -11 72 34 42 64 -16 16 -53 15
-68 -3z"/>
<path d="M2008 1332 c-23 -5 -30 -29 -12 -47 20 -20 31 -19 43 3 12 22 -7 49
-31 44z"/>
<path d="M3095 1320 c-3 -5 -1 -10 4 -10 6 0 11 5 11 10 0 6 -2 10 -4 10 -3 0
-8 -4 -11 -10z"/>
<path d="M2165 1272 c-7 -5 -10 -122 -9 -352 1 -190 2 -348 3 -351 1 -4 12 -6
26 -6 18 0 25 5 25 19 0 13 4 17 13 12 9 -6 9 -5 0 8 -8 9 -12 37 -10 69 2 48
5 54 25 57 33 5 49 -13 47 -51 -1 -22 -6 -31 -16 -29 -9 1 -6 -4 6 -14 20 -16
19 -16 -5 -11 -21 5 -22 4 -10 -6 16 -13 19 -26 8 -42 -4 -6 8 -10 29 -10 34
0 52 16 47 43 -1 6 -2 161 -3 342 l-1 330 -82 0 c-46 0 -88 -4 -93 -8z m109
-48 c16 -6 24 -73 9 -75 -5 0 -18 -2 -30 -5 -40 -7 -63 36 -40 74 9 13 36 16
61 6z"/>
<path d="M2945 1178 c-33 -29 -36 -71 -7 -100 36 -36 102 -18 115 32 6 23 -21
80 -38 80 -8 0 -20 3 -28 6 -8 3 -27 -5 -42 -18z m73 -56 c-4 -22 -46 -28 -54
-8 -4 9 -1 23 6 31 16 19 53 1 48 -23z"/>
<path d="M3295 1193 c-36 -9 -83 -52 -94 -85 -7 -21 -10 -126 -8 -285 2 -277
2 -276 71 -327 26 -20 40 -21 310 -21 l283 0 36 28 c68 52 71 63 72 334 1 272
-3 293 -62 333 l-36 25 -276 2 c-152 0 -285 -1 -296 -4z m475 -77 c0 -4 -7 -6
-15 -2 -14 5 -21 -16 -16 -46 0 -5 -3 -8 -9 -8 -6 0 -5 -10 2 -25 6 -14 9 -28
5 -31 -8 -8 -423 -8 -436 1 -6 3 -11 23 -11 44 0 38 15 66 38 72 26 8 442 4
442 -5z m77 -8 c5 -7 9 -33 8 -57 0 -39 -3 -45 -26 -52 -27 -7 -52 2 -49 17 1
5 8 17 17 26 14 16 14 18 -1 24 -9 3 -16 17 -16 30 0 20 5 24 29 24 16 0 33
-6 38 -12z m-259 -159 c-2 -6 -7 -10 -12 -9 -4 1 -13 -6 -20 -15 -11 -15 -12
-14 -12 3 0 14 6 19 18 17 10 -2 18 0 18 6 0 5 3 9 6 9 3 0 4 -5 2 -11z m27
-29 c3 -6 -1 -7 -9 -4 -18 7 -21 14 -7 14 6 0 13 -4 16 -10z m-178 -65 c0 -8
-3 -15 -6 -16 -3 0 -14 -2 -23 -4 -10 -2 -18 1 -18 6 0 5 -11 4 -25 -1 -15 -6
-26 -6 -30 0 -4 6 -14 5 -26 -3 -16 -10 -21 -9 -29 3 -15 25 -1 30 79 30 62 0
78 -3 78 -15z m203 5 c0 -5 0 -13 0 -17 0 -12 -34 -10 -42 2 -5 7 -8 6 -8 -1
0 -6 -17 -10 -40 -9 -22 1 -40 -2 -40 -7 0 -4 -4 -8 -10 -8 -5 0 -10 11 -10
25 0 24 2 25 75 25 43 0 75 -4 75 -10z m210 -6 c0 -10 -6 -14 -15 -10 -8 3
-15 1 -15 -5 0 -6 -7 -6 -20 1 -15 8 -20 8 -20 -2 0 -9 -3 -9 -11 -1 -8 8 -20
7 -44 -7 l-32 -18 -1 29 -1 29 80 0 c66 0 79 -3 79 -16z m-145 -93 c3 -5 2
-12 -3 -15 -5 -3 -9 1 -9 9 0 17 3 19 12 6z m-271 -76 c3 -8 4 -15 2 -15 -3 0
-12 -3 -22 -7 -12 -5 -15 -3 -9 6 6 10 3 11 -13 2 -25 -13 -35 -14 -28 -3 3 5
-1 9 -9 9 -8 0 -12 -4 -9 -9 3 -4 1 -8 -5 -8 -5 0 -13 5 -16 11 -5 7 -14 4
-26 -7 -18 -16 -19 -16 -19 9 0 27 1 27 74 27 56 0 75 -4 80 -15z m206 -3 c0
-19 -24 -23 -47 -9 -6 4 -14 3 -18 -3 -3 -5 -11 -10 -16 -10 -6 0 -7 5 -3 12
5 7 3 8 -7 2 -8 -4 -26 -9 -40 -10 -22 -2 -26 1 -22 17 5 17 15 19 79 19 65 0
74 -2 74 -18z m208 -5 c3 -14 -2 -17 -22 -13 -14 3 -31 8 -37 12 -8 4 -9 3 -5
-4 8 -13 -20 -12 -40 0 -6 4 -21 -2 -32 -13 l-22 -20 0 24 c0 35 7 38 84 35
59 -3 71 -6 74 -21z"/>
<path d="M3335 1060 c-2 -3 -1 -11 3 -17 8 -11 132 -12 132 0 0 4 0 11 0 16 0
10 -129 11 -135 1z"/>
<path d="M3655 1060 c-4 -7 -3 -16 3 -22 14 -14 45 -2 40 15 -6 16 -34 21 -43
7z"/>
<path d="M1917 1164 c-4 -4 -7 -142 -7 -306 1 -282 2 -298 20 -308 35 -19 40
-12 40 54 0 67 8 79 44 66 20 -7 30 -50 12 -50 -6 0 -5 -4 2 -9 7 -4 12 -12
11 -17 -5 -27 3 -35 29 -32 l27 3 0 300 0 300 -86 3 c-47 1 -88 0 -92 -4z
m121 -51 c14 -27 0 -66 -25 -69 -40 -6 -63 36 -40 74 12 18 55 15 65 -5z"/>
<path d="M2707 1092 l-67 -3 2 -262 3 -262 90 0 90 0 0 253 c0 140 -2 257 -5
261 -8 12 -41 16 -113 13z m61 -61 c6 -1 12 -14 12 -30 0 -30 -12 -43 -40 -48
-23 -3 -40 17 -40 47 0 29 13 39 40 34 8 -1 21 -3 28 -3z"/>
<path d="M1667 1003 c-7 -11 -3 -340 3 -346 8 -7 100 -53 143 -70 l37 -16 0
220 0 219 -89 0 c-50 0 -92 -3 -94 -7z m129 -70 c4 -24 -7 -35 -43 -39 -17 -2
-25 4 -29 21 -8 34 3 47 39 43 22 -2 31 -9 33 -25z"/>
<path d="M2470 958 c0 -4 4 -8 9 -8 6 0 12 4 15 8 3 5 -1 9 -9 9 -8 0 -15 -4
-15 -9z"/>
<path d="M2939 952 l-56 -3 2 -187 c1 -103 3 -190 4 -194 2 -13 76 -5 129 14
l52 19 1 152 c0 84 2 162 3 175 2 16 -3 22 -18 23 -12 0 -30 1 -41 2 -11 1
-45 1 -76 -1z m77 -99 c12 -45 -44 -74 -66 -34 -13 25 -13 27 5 45 22 22 55
16 61 -11z"/>
<path d="M2493 933 c-4 -10 -11 -22 -17 -26 -7 -6 -6 -7 3 -5 13 4 37 48 25
48 -2 0 -8 -8 -11 -17z"/>
<path d="M2474 789 c-4 -7 -3 -9 4 -5 15 9 21 -15 10 -39 -9 -20 -9 -20 6 -1
20 24 20 30 2 45 -11 9 -16 9 -22 0z"/>
<path d="M2479 718 c-1 -2 -3 -15 -4 -30 -4 -26 -3 -26 16 -7 23 23 25 37 2
18 -15 -12 -16 -12 -10 4 3 9 4 17 2 17 -3 0 -6 -1 -6 -2z"/>
<path d="M2234 678 c-4 -7 -4 -10 1 -6 4 4 15 2 24 -5 14 -11 14 -10 2 6 -16
20 -18 21 -27 5z"/>
<path d="M1483 621 c-29 -15 -69 -28 -90 -29 -49 -4 -53 -9 -23 -32 47 -35
275 -157 365 -195 121 -51 308 -99 480 -124 68 -9 400 -8 440 2 11 2 43 8 70
11 114 16 326 79 447 133 l57 25 -40 50 c-21 27 -43 57 -48 65 -7 14 -15 13
-67 -6 -362 -135 -573 -163 -894 -116 -180 26 -445 121 -588 212 -29 18 -53
32 -55 32 -1 -1 -25 -14 -54 -28z"/>
<path d="M2235 608 c15 -25 15 -27 -2 -30 -16 -3 -16 -4 -1 -10 25 -10 30 18
7 44 l-20 23 16 -27z"/>
<path d="M2050 519 c0 -5 3 -9 8 -9 4 0 39 -6 77 -14 112 -23 162 -28 296 -27
155 0 379 32 379 53 0 6 -167 1 -188 -6 -13 -4 -29 -3 -36 3 -14 12 -66 11
-66 -1 0 -4 -13 -8 -30 -8 -16 0 -30 4 -30 9 0 10 -45 8 -72 -4 -10 -4 -26 -4
-35 1 -23 9 -73 13 -73 5 0 -11 -58 -12 -64 -2 -4 5 -21 7 -39 4 -39 -6 -42
-6 -89 0 -21 3 -38 1 -38 -4z"/>
</g>
</svg>
